<svg width="230" height="278" viewBox="0 0 230 278" fill="none" xmlns="http://www.w3.org/2000/svg">
<path d="M161.533 0H28.2839V122.25H46.2173V17.931H143.6V86.3885H212.136V260.138H143.6V278H230V68.527V68.4575V68.527L161.533 0ZM161.464 68.4575V25.298L204.699 68.4575H161.464ZM-8 139V278H125.666V139H-8ZM107.733 255.204L74.5771 222.052L51.5 245.127L37.5286 231.157L9.79439 258.887V156.931H107.664V255.204H107.733ZM91.3289 196.615C91.3289 201.897 87.0193 206.207 81.7366 206.207C76.4539 206.207 72.1443 201.897 72.1443 196.615C72.1443 191.333 76.4539 187.025 81.7366 187.025C87.0193 187.094 91.3289 191.333 91.3289 196.615Z" fill="white"/>
</svg>
